<?xml version="1.0" encoding="UTF-8" standalone="no"?>
<!-- Created with Inkscape (http://www.inkscape.org/) -->

<svg
   width="32"
   height="32"
   viewBox="0 0 32 32"
   version="1.1"
   id="svg1"
   xmlns="http://www.w3.org/2000/svg"
   xmlns:svg="http://www.w3.org/2000/svg">
  <defs
     id="defs1" />
  <g
     id="layer1">
    <rect
       style="fill:#000000;stroke:none;stroke-opacity:1"
       id="rect18"
       width="30"
       height="6"
       x="1"
       y="1"
       rx="2"
       ry="2" />
    <rect
       style="fill:#000000;stroke:none;stroke-opacity:1"
       id="rect19"
       width="6"
       height="6"
       x="1"
       y="9"
       rx="2"
       ry="2" />
    <rect
       style="fill:#000000;stroke:none;stroke-opacity:1"
       id="rect20"
       width="6"
       height="6"
       x="9"
       y="9"
       rx="2"
       ry="2" />
    <rect
       style="fill:#000000;stroke:none;stroke-opacity:1"
       id="rect21"
       width="6"
       height="6"
       x="17"
       y="9"
       rx="2"
       ry="2" />
    <rect
       style="fill:#000000;stroke:none;stroke-opacity:1"
       id="rect22"
       width="6"
       height="6"
       x="25"
       y="9"
       rx="2"
       ry="2" />
    <rect
       style="fill:#000000;stroke:none;stroke-opacity:1"
       id="rect23"
       width="6"
       height="6"
       x="1"
       y="17"
       rx="2"
       ry="2" />
    <rect
       style="fill:#000000;stroke:none;stroke-opacity:1"
       id="rect24"
       width="6"
       height="6"
       x="9"
       y="17"
       rx="2"
       ry="2" />
    <rect
       style="fill:#000000;stroke:none;stroke-opacity:1"
       id="rect25"
       width="6"
       height="6"
       x="17"
       y="17"
       rx="2"
       ry="2" />
    <rect
       style="fill:#000000;stroke:none;stroke-opacity:1"
       id="rect26"
       width="6"
       height="6"
       x="25"
       y="17"
       rx="2"
       ry="2" />
    <rect
       style="fill:#000000;stroke:none;stroke-opacity:1"
       id="rect27"
       width="6"
       height="6"
       x="1"
       y="25"
       rx="2"
       ry="2" />
    <rect
       style="fill:#000000;stroke:none;stroke-opacity:1"
       id="rect28"
       width="6"
       height="6"
       x="9"
       y="25"
       rx="2"
       ry="2" />
    <rect
       style="fill:#000000;stroke:none;stroke-opacity:1"
       id="rect29"
       width="6"
       height="6"
       x="17"
       y="25"
       rx="2"
       ry="2" />
    <rect
       style="fill:#000000;stroke:none;stroke-opacity:1"
       id="rect30"
       width="6"
       height="6"
       x="25"
       y="25"
       rx="2"
       ry="2" />
  </g>
</svg>
